<svg xmlns="http://www.w3.org/2000/svg" viewBox="0 0 480 220" width="100%" height="100%">
  
  <defs>
    <filter id="neonGlow" x="-20%" y="-20%" width="140%" height="140%">
      <feGaussianBlur stdDeviation="2" result="coloredBlur"/>
      <feMerge>
        <feMergeNode in="coloredBlur"/>
        <feMergeNode in="SourceGraphic"/>
      </feMerge>
    </filter>
  </defs>
  
  <!-- Outer glowing border and background -->
  <rect width="476" height="216" x="2" y="2" fill="#0b0f19" rx="8" stroke="#10b981" stroke-width="1.2" filter="url(#neonGlow)" />
  <rect width="476" height="216" x="2" y="2" fill="#0b0f19" rx="8" stroke="#1e293b" stroke-width="1" />
  
  <text x="25" y="38" font-family="Segoe UI, -apple-system, sans-serif" font-size="14" font-weight="bold" fill="#10b981" letter-spacing="1">🎨 TOP LANGUAGES</text>
  
  
  <g transform="translate(25, 65)">
    <text x="0" y="10" font-family="Segoe UI, -apple-system, sans-serif" font-size="12" font-weight="600" fill="#cbd5e1">TypeScript</text>
    <text x="170" y="10" font-family="Segoe UI, -apple-system, sans-serif" font-size="11" fill="#cbd5e1" text-anchor="end">50.3%</text>
    
    <!-- Progress Bar -->
    <rect x="190" y="1" width="220" height="8" fill="#1e293b" rx="4" />
    <rect x="190" y="1" width="101" height="8" fill="#3178c6" rx="4" filter="url(#neonGlow)" />
    <rect x="190" y="1" width="101" height="8" fill="#3178c6" rx="4" />
  </g>
  <g transform="translate(25, 93)">
    <text x="0" y="10" font-family="Segoe UI, -apple-system, sans-serif" font-size="12" font-weight="600" fill="#cbd5e1">JavaScript</text>
    <text x="170" y="10" font-family="Segoe UI, -apple-system, sans-serif" font-size="11" fill="#cbd5e1" text-anchor="end">22.0%</text>
    
    <!-- Progress Bar -->
    <rect x="190" y="1" width="220" height="8" fill="#1e293b" rx="4" />
    <rect x="190" y="1" width="44" height="8" fill="#f1e05a" rx="4" filter="url(#neonGlow)" />
    <rect x="190" y="1" width="44" height="8" fill="#f1e05a" rx="4" />
  </g>
  <g transform="translate(25, 121)">
    <text x="0" y="10" font-family="Segoe UI, -apple-system, sans-serif" font-size="12" font-weight="600" fill="#cbd5e1">CSS</text>
    <text x="170" y="10" font-family="Segoe UI, -apple-system, sans-serif" font-size="11" fill="#cbd5e1" text-anchor="end">14.3%</text>
    
    <!-- Progress Bar -->
    <rect x="190" y="1" width="220" height="8" fill="#1e293b" rx="4" />
    <rect x="190" y="1" width="29" height="8" fill="#663399" rx="4" filter="url(#neonGlow)" />
    <rect x="190" y="1" width="29" height="8" fill="#663399" rx="4" />
  </g>
  <g transform="translate(25, 149)">
    <text x="0" y="10" font-family="Segoe UI, -apple-system, sans-serif" font-size="12" font-weight="600" fill="#cbd5e1">HTML</text>
    <text x="170" y="10" font-family="Segoe UI, -apple-system, sans-serif" font-size="11" fill="#cbd5e1" text-anchor="end">12.4%</text>
    
    <!-- Progress Bar -->
    <rect x="190" y="1" width="220" height="8" fill="#1e293b" rx="4" />
    <rect x="190" y="1" width="25" height="8" fill="#e34c26" rx="4" filter="url(#neonGlow)" />
    <rect x="190" y="1" width="25" height="8" fill="#e34c26" rx="4" />
  </g>
  <g transform="translate(25, 177)">
    <text x="0" y="10" font-family="Segoe UI, -apple-system, sans-serif" font-size="12" font-weight="600" fill="#cbd5e1">PowerShell</text>
    <text x="170" y="10" font-family="Segoe UI, -apple-system, sans-serif" font-size="11" fill="#cbd5e1" text-anchor="end">0.5%</text>
    
    <!-- Progress Bar -->
    <rect x="190" y="1" width="220" height="8" fill="#1e293b" rx="4" />
    <rect x="190" y="1" width="1" height="8" fill="#012456" rx="4" filter="url(#neonGlow)" />
    <rect x="190" y="1" width="1" height="8" fill="#012456" rx="4" />
  </g>
</svg>