<svg xmlns="http://www.w3.org/2000/svg" viewBox="0 0 480 220" width="100%" height="100%">
  <rect width="100%" height="100%" fill="#181816" rx="8" stroke="#ac4d19" stroke-width="1.5" />
  
  <text x="25" y="35" font-family="Segoe UI, -apple-system, sans-serif" font-size="15" font-weight="bold" fill="#ac4d19">🎨 TOP LANGUAGES</text>
  
  
  <g transform="translate(25, 65)">
    <text x="0" y="10" font-family="Segoe UI, -apple-system, sans-serif" font-size="12" font-weight="600" fill="#b3aca7">TypeScript</text>
    <text x="170" y="10" font-family="Segoe UI, -apple-system, sans-serif" font-size="11" fill="#b3aca7" text-anchor="end">50.3%</text>
    
    <!-- Progress Bar -->
    <rect x="190" y="1" width="220" height="8" fill="#181816" rx="4" stroke="#4d2715" stroke-width="1"/>
    <rect x="190" y="1" width="109.2" height="8" fill="#3178c6" rx="4" />
  </g>
  <g transform="translate(25, 95)">
    <text x="0" y="10" font-family="Segoe UI, -apple-system, sans-serif" font-size="12" font-weight="600" fill="#b3aca7">JavaScript</text>
    <text x="170" y="10" font-family="Segoe UI, -apple-system, sans-serif" font-size="11" fill="#b3aca7" text-anchor="end">21.9%</text>
    
    <!-- Progress Bar -->
    <rect x="190" y="1" width="220" height="8" fill="#181816" rx="4" stroke="#4d2715" stroke-width="1"/>
    <rect x="190" y="1" width="46.8" height="8" fill="#f1e05a" rx="4" />
  </g>
  <g transform="translate(25, 125)">
    <text x="0" y="10" font-family="Segoe UI, -apple-system, sans-serif" font-size="12" font-weight="600" fill="#b3aca7">CSS</text>
    <text x="170" y="10" font-family="Segoe UI, -apple-system, sans-serif" font-size="11" fill="#b3aca7" text-anchor="end">14.3%</text>
    
    <!-- Progress Bar -->
    <rect x="190" y="1" width="220" height="8" fill="#181816" rx="4" stroke="#4d2715" stroke-width="1"/>
    <rect x="190" y="1" width="31.2" height="8" fill="#663399" rx="4" />
  </g>
  <g transform="translate(25, 155)">
    <text x="0" y="10" font-family="Segoe UI, -apple-system, sans-serif" font-size="12" font-weight="600" fill="#b3aca7">HTML</text>
    <text x="170" y="10" font-family="Segoe UI, -apple-system, sans-serif" font-size="11" fill="#b3aca7" text-anchor="end">12.4%</text>
    
    <!-- Progress Bar -->
    <rect x="190" y="1" width="220" height="8" fill="#181816" rx="4" stroke="#4d2715" stroke-width="1"/>
    <rect x="190" y="1" width="26.4" height="8" fill="#e34c26" rx="4" />
  </g>
  <g transform="translate(25, 185)">
    <text x="0" y="10" font-family="Segoe UI, -apple-system, sans-serif" font-size="12" font-weight="600" fill="#b3aca7">PowerShell</text>
    <text x="170" y="10" font-family="Segoe UI, -apple-system, sans-serif" font-size="11" fill="#b3aca7" text-anchor="end">0.5%</text>
    
    <!-- Progress Bar -->
    <rect x="190" y="1" width="220" height="8" fill="#181816" rx="4" stroke="#4d2715" stroke-width="1"/>
    <rect x="190" y="1" width="1.2" height="8" fill="#012456" rx="4" />
  </g>
</svg>